<?xml version="1.0" encoding="utf-8"?>
<!-- Generator: Adobe Illustrator 16.0.0, SVG Export Plug-In . SVG Version: 6.00 Build 0)  -->
<!DOCTYPE svg PUBLIC "-//W3C//DTD SVG 1.1//EN" "http://www.w3.org/Graphics/SVG/1.1/DTD/svg11.dtd">
<svg version="1.1" id="Ebene_1" xmlns="http://www.w3.org/2000/svg" xmlns:xlink="http://www.w3.org/1999/xlink" x="0px" y="0px"
	  viewBox="158.802 201.108 301.07 372.768"
	 enable-background="new 158.802 201.108 301.07 372.768" xml:space="preserve">
<rect x="163.219" y="312.592" fill="none" stroke="#9282A4" stroke-width="8.8337" stroke-miterlimit="10" width="292.236" height="256.867"/>
<line fill="none" stroke="#9282A4" stroke-width="8.8337" stroke-miterlimit="10" x1="282.471" y1="568.15" x2="282.471" y2="309.978"/>
<line fill="none" stroke="#9282A4" stroke-width="8.8337" stroke-miterlimit="10" x1="336.203" y1="309.978" x2="336.203" y2="568.15"/>
<line fill="none" stroke="#9282A4" stroke-width="8.8337" stroke-miterlimit="10" x1="335.544" y1="418.748" x2="452.884" y2="418.748"/>
<line fill="none" stroke="#9282A4" stroke-width="8.8337" stroke-miterlimit="10" x1="163.866" y1="418.748" x2="281.813" y2="418.748"/>
<line fill="none" stroke="#9282A4" stroke-width="8.8337" stroke-miterlimit="10" x1="280.506" y1="459.169" x2="163.866" y2="459.169"/>
<line fill="none" stroke="#9282A4" stroke-width="8.8337" stroke-miterlimit="10" x1="452.884" y1="459.169" x2="335.544" y2="459.169"/>
<g>
	<path fill="none" stroke="#9282A4" stroke-width="8.8337" stroke-miterlimit="10" d="M328.147,278.916h50.06
		c7.066,0,18.396-1.625,25.179-3.614c0,0,16.497-4.836,16.497-29.741c0-24.922-18.352-40.035-39.318-40.035
		C359.606,205.525,328.147,227.807,328.147,278.916z"/>
</g>
<g>
	<path fill="none" stroke="#9282A4" stroke-width="8.8337" stroke-miterlimit="10" d="M290.533,278.916h-50.057
		c-7.067,0-18.397-1.625-25.181-3.614c0,0-16.497-4.836-16.497-29.741c0-24.922,18.334-40.035,39.31-40.035
		S290.533,227.807,290.533,278.916z"/>
</g>
</svg>
